<svg xmlns="http://www.w3.org/2000/svg" width="352" height="407" viewbox="0 0 352 407" preserveAspectRatio="none"><rect x="0" y="0" width="100%" height="100%" fill="rgb(88, 128, 155)" /><polyline points="0,33.94819582835,19.6,0,58.8,0,78.4,33.94819582835,58.8,67.8963916567,19.6,67.8963916567,0,33.94819582835" stroke="#000" stroke-opacity="0.02" fill-opacity="0.098" fill="#222" transform="translate(-39.2, -33.94819582835)" /><polyline points="0,33.94819582835,19.6,0,58.8,0,78.4,33.94819582835,58.8,67.8963916567,19.6,67.8963916567,0,33.94819582835" stroke="#000" stroke-opacity="0.02" fill-opacity="0.098" fill="#222" transform="translate(313.6, -33.94819582835)" /><polyline points="0,33.94819582835,19.6,0,58.8,0,78.4,33.94819582835,58.8,67.8963916567,19.6,67.8963916567,0,33.94819582835" stroke="#000" stroke-opacity="0.02" fill-opacity="0.098" fill="#222" transform="translate(-39.2, 373.43015411185)" /><polyline points="0,33.94819582835,19.6,0,58.8,0,78.4,33.94819582835,58.8,67.8963916567,19.6,67.8963916567,0,33.94819582835" stroke="#000" stroke-opacity="0.02" fill-opacity="0.098" fill="#222" transform="translate(313.6, 373.43015411185)" /><polyline points="0,33.94819582835,19.6,0,58.8,0,78.4,33.94819582835,58.8,67.8963916567,19.6,67.8963916567,0,33.94819582835" stroke="#000" stroke-opacity="0.02" fill-opacity="0.080666666666667" fill="#222" transform="translate(19.6, 0)" /><polyline points="0,33.94819582835,19.6,0,58.8,0,78.4,33.94819582835,58.8,67.8963916567,19.6,67.8963916567,0,33.94819582835" stroke="#000" stroke-opacity="0.02" fill-opacity="0.080666666666667" fill="#222" transform="translate(19.6, 407.3783499402)" /><polyline points="0,33.94819582835,19.6,0,58.8,0,78.4,33.94819582835,58.8,67.8963916567,19.6,67.8963916567,0,33.94819582835" stroke="#000" stroke-opacity="0.02" fill-opacity="0.080666666666667" fill="#222" transform="translate(78.4, -33.94819582835)" /><polyline points="0,33.94819582835,19.6,0,58.8,0,78.4,33.94819582835,58.8,67.8963916567,19.6,67.8963916567,0,33.94819582835" stroke="#000" stroke-opacity="0.02" fill-opacity="0.080666666666667" fill="#222" transform="translate(78.4, 373.43015411185)" /><polyline points="0,33.94819582835,19.6,0,58.8,0,78.4,33.94819582835,58.8,67.8963916567,19.6,67.8963916567,0,33.94819582835" stroke="#000" stroke-opacity="0.02" fill-opacity="0.089333333333333" fill="#ddd" transform="translate(137.2, 0)" /><polyline points="0,33.94819582835,19.6,0,58.8,0,78.4,33.94819582835,58.8,67.8963916567,19.6,67.8963916567,0,33.94819582835" stroke="#000" stroke-opacity="0.02" fill-opacity="0.089333333333333" fill="#ddd" transform="translate(137.2, 407.3783499402)" /><polyline points="0,33.94819582835,19.6,0,58.8,0,78.4,33.94819582835,58.8,67.8963916567,19.6,67.8963916567,0,33.94819582835" stroke="#000" stroke-opacity="0.02" fill-opacity="0.080666666666667" fill="#222" transform="translate(196, -33.94819582835)" /><polyline points="0,33.94819582835,19.6,0,58.8,0,78.4,33.94819582835,58.8,67.8963916567,19.6,67.8963916567,0,33.94819582835" stroke="#000" stroke-opacity="0.02" fill-opacity="0.080666666666667" fill="#222" transform="translate(196, 373.43015411185)" /><polyline points="0,33.94819582835,19.6,0,58.8,0,78.4,33.94819582835,58.8,67.8963916567,19.6,67.8963916567,0,33.94819582835" stroke="#000" stroke-opacity="0.02" fill-opacity="0.046" fill="#222" transform="translate(254.8, 0)" /><polyline points="0,33.94819582835,19.6,0,58.8,0,78.4,33.94819582835,58.8,67.8963916567,19.6,67.8963916567,0,33.94819582835" stroke="#000" stroke-opacity="0.02" fill-opacity="0.046" fill="#222" transform="translate(254.8, 407.3783499402)" /><polyline points="0,33.94819582835,19.6,0,58.8,0,78.4,33.94819582835,58.8,67.8963916567,19.6,67.8963916567,0,33.94819582835" stroke="#000" stroke-opacity="0.02" fill-opacity="0.15" fill="#222" transform="translate(-39.2, 33.94819582835)" /><polyline points="0,33.94819582835,19.6,0,58.8,0,78.4,33.94819582835,58.8,67.8963916567,19.6,67.8963916567,0,33.94819582835" stroke="#000" stroke-opacity="0.02" fill-opacity="0.15" fill="#222" transform="translate(313.6, 33.94819582835)" /><polyline points="0,33.94819582835,19.6,0,58.8,0,78.4,33.94819582835,58.8,67.8963916567,19.6,67.8963916567,0,33.94819582835" stroke="#000" stroke-opacity="0.02" fill-opacity="0.028666666666667" fill="#222" transform="translate(19.6, 67.8963916567)" /><polyline points="0,33.94819582835,19.6,0,58.8,0,78.4,33.94819582835,58.8,67.8963916567,19.6,67.8963916567,0,33.94819582835" stroke="#000" stroke-opacity="0.02" fill-opacity="0.063333333333333" fill="#222" transform="translate(78.4, 33.94819582835)" /><polyline points="0,33.94819582835,19.6,0,58.8,0,78.4,33.94819582835,58.8,67.8963916567,19.6,67.8963916567,0,33.94819582835" stroke="#000" stroke-opacity="0.02" fill-opacity="0.02" fill="#ddd" transform="translate(137.2, 67.8963916567)" /><polyline points="0,33.94819582835,19.6,0,58.8,0,78.4,33.94819582835,58.8,67.8963916567,19.6,67.8963916567,0,33.94819582835" stroke="#000" stroke-opacity="0.02" fill-opacity="0.15" fill="#222" transform="translate(196, 33.94819582835)" /><polyline points="0,33.94819582835,19.6,0,58.8,0,78.4,33.94819582835,58.8,67.8963916567,19.6,67.8963916567,0,33.94819582835" stroke="#000" stroke-opacity="0.02" fill-opacity="0.02" fill="#ddd" transform="translate(254.8, 67.8963916567)" /><polyline points="0,33.94819582835,19.6,0,58.8,0,78.4,33.94819582835,58.8,67.8963916567,19.6,67.8963916567,0,33.94819582835" stroke="#000" stroke-opacity="0.02" fill-opacity="0.046" fill="#222" transform="translate(-39.2, 101.84458748505)" /><polyline points="0,33.94819582835,19.6,0,58.8,0,78.4,33.94819582835,58.8,67.8963916567,19.6,67.8963916567,0,33.94819582835" stroke="#000" stroke-opacity="0.02" fill-opacity="0.046" fill="#222" transform="translate(313.6, 101.84458748505)" /><polyline points="0,33.94819582835,19.6,0,58.8,0,78.4,33.94819582835,58.8,67.8963916567,19.6,67.8963916567,0,33.94819582835" stroke="#000" stroke-opacity="0.02" fill-opacity="0.046" fill="#222" transform="translate(19.6, 135.7927833134)" /><polyline points="0,33.94819582835,19.6,0,58.8,0,78.4,33.94819582835,58.8,67.8963916567,19.6,67.8963916567,0,33.94819582835" stroke="#000" stroke-opacity="0.02" fill-opacity="0.124" fill="#ddd" transform="translate(78.4, 101.84458748505)" /><polyline points="0,33.94819582835,19.6,0,58.8,0,78.4,33.94819582835,58.8,67.8963916567,19.6,67.8963916567,0,33.94819582835" stroke="#000" stroke-opacity="0.02" fill-opacity="0.14133333333333" fill="#ddd" transform="translate(137.2, 135.7927833134)" /><polyline points="0,33.94819582835,19.6,0,58.8,0,78.4,33.94819582835,58.8,67.8963916567,19.6,67.8963916567,0,33.94819582835" stroke="#000" stroke-opacity="0.02" fill-opacity="0.046" fill="#222" transform="translate(196, 101.84458748505)" /><polyline points="0,33.94819582835,19.6,0,58.8,0,78.4,33.94819582835,58.8,67.8963916567,19.6,67.8963916567,0,33.94819582835" stroke="#000" stroke-opacity="0.02" fill-opacity="0.11533333333333" fill="#222" transform="translate(254.8, 135.7927833134)" /><polyline points="0,33.94819582835,19.6,0,58.8,0,78.4,33.94819582835,58.8,67.8963916567,19.6,67.8963916567,0,33.94819582835" stroke="#000" stroke-opacity="0.02" fill-opacity="0.046" fill="#222" transform="translate(-39.2, 169.74097914175)" /><polyline points="0,33.94819582835,19.6,0,58.8,0,78.4,33.94819582835,58.8,67.8963916567,19.6,67.8963916567,0,33.94819582835" stroke="#000" stroke-opacity="0.02" fill-opacity="0.046" fill="#222" transform="translate(313.6, 169.74097914175)" /><polyline points="0,33.94819582835,19.6,0,58.8,0,78.4,33.94819582835,58.8,67.8963916567,19.6,67.8963916567,0,33.94819582835" stroke="#000" stroke-opacity="0.02" fill-opacity="0.11533333333333" fill="#222" transform="translate(19.6, 203.6891749701)" /><polyline points="0,33.94819582835,19.6,0,58.8,0,78.4,33.94819582835,58.8,67.8963916567,19.6,67.8963916567,0,33.94819582835" stroke="#000" stroke-opacity="0.02" fill-opacity="0.063333333333333" fill="#222" transform="translate(78.4, 169.74097914175)" /><polyline points="0,33.94819582835,19.6,0,58.8,0,78.4,33.94819582835,58.8,67.8963916567,19.6,67.8963916567,0,33.94819582835" stroke="#000" stroke-opacity="0.02" fill-opacity="0.054666666666667" fill="#ddd" transform="translate(137.2, 203.6891749701)" /><polyline points="0,33.94819582835,19.6,0,58.8,0,78.4,33.94819582835,58.8,67.8963916567,19.6,67.8963916567,0,33.94819582835" stroke="#000" stroke-opacity="0.02" fill-opacity="0.02" fill="#ddd" transform="translate(196, 169.74097914175)" /><polyline points="0,33.94819582835,19.6,0,58.8,0,78.4,33.94819582835,58.8,67.8963916567,19.6,67.8963916567,0,33.94819582835" stroke="#000" stroke-opacity="0.02" fill-opacity="0.089333333333333" fill="#ddd" transform="translate(254.8, 203.6891749701)" /><polyline points="0,33.94819582835,19.6,0,58.8,0,78.4,33.94819582835,58.8,67.8963916567,19.6,67.8963916567,0,33.94819582835" stroke="#000" stroke-opacity="0.02" fill-opacity="0.089333333333333" fill="#ddd" transform="translate(-39.2, 237.63737079845)" /><polyline points="0,33.94819582835,19.6,0,58.8,0,78.4,33.94819582835,58.8,67.8963916567,19.6,67.8963916567,0,33.94819582835" stroke="#000" stroke-opacity="0.02" fill-opacity="0.089333333333333" fill="#ddd" transform="translate(313.6, 237.63737079845)" /><polyline points="0,33.94819582835,19.6,0,58.8,0,78.4,33.94819582835,58.8,67.8963916567,19.6,67.8963916567,0,33.94819582835" stroke="#000" stroke-opacity="0.02" fill-opacity="0.028666666666667" fill="#222" transform="translate(19.6, 271.5855666268)" /><polyline points="0,33.94819582835,19.6,0,58.8,0,78.4,33.94819582835,58.8,67.8963916567,19.6,67.8963916567,0,33.94819582835" stroke="#000" stroke-opacity="0.02" fill-opacity="0.080666666666667" fill="#222" transform="translate(78.4, 237.63737079845)" /><polyline points="0,33.94819582835,19.6,0,58.8,0,78.4,33.94819582835,58.8,67.8963916567,19.6,67.8963916567,0,33.94819582835" stroke="#000" stroke-opacity="0.02" fill-opacity="0.124" fill="#ddd" transform="translate(137.2, 271.5855666268)" /><polyline points="0,33.94819582835,19.6,0,58.8,0,78.4,33.94819582835,58.8,67.8963916567,19.6,67.8963916567,0,33.94819582835" stroke="#000" stroke-opacity="0.02" fill-opacity="0.02" fill="#ddd" transform="translate(196, 237.63737079845)" /><polyline points="0,33.94819582835,19.6,0,58.8,0,78.4,33.94819582835,58.8,67.8963916567,19.6,67.8963916567,0,33.94819582835" stroke="#000" stroke-opacity="0.02" fill-opacity="0.15" fill="#222" transform="translate(254.8, 271.5855666268)" /><polyline points="0,33.94819582835,19.6,0,58.8,0,78.4,33.94819582835,58.8,67.8963916567,19.6,67.8963916567,0,33.94819582835" stroke="#000" stroke-opacity="0.02" fill-opacity="0.11533333333333" fill="#222" transform="translate(-39.2, 305.53376245515)" /><polyline points="0,33.94819582835,19.6,0,58.8,0,78.4,33.94819582835,58.8,67.8963916567,19.6,67.8963916567,0,33.94819582835" stroke="#000" stroke-opacity="0.02" fill-opacity="0.11533333333333" fill="#222" transform="translate(313.6, 305.53376245515)" /><polyline points="0,33.94819582835,19.6,0,58.8,0,78.4,33.94819582835,58.8,67.8963916567,19.6,67.8963916567,0,33.94819582835" stroke="#000" stroke-opacity="0.02" fill-opacity="0.15" fill="#222" transform="translate(19.6, 339.4819582835)" /><polyline points="0,33.94819582835,19.6,0,58.8,0,78.4,33.94819582835,58.8,67.8963916567,19.6,67.8963916567,0,33.94819582835" stroke="#000" stroke-opacity="0.02" fill-opacity="0.02" fill="#ddd" transform="translate(78.4, 305.53376245515)" /><polyline points="0,33.94819582835,19.6,0,58.8,0,78.4,33.94819582835,58.8,67.8963916567,19.6,67.8963916567,0,33.94819582835" stroke="#000" stroke-opacity="0.02" fill-opacity="0.089333333333333" fill="#ddd" transform="translate(137.2, 339.4819582835)" /><polyline points="0,33.94819582835,19.6,0,58.8,0,78.4,33.94819582835,58.8,67.8963916567,19.6,67.8963916567,0,33.94819582835" stroke="#000" stroke-opacity="0.02" fill-opacity="0.028666666666667" fill="#222" transform="translate(196, 305.53376245515)" /><polyline points="0,33.94819582835,19.6,0,58.8,0,78.4,33.94819582835,58.8,67.8963916567,19.6,67.8963916567,0,33.94819582835" stroke="#000" stroke-opacity="0.02" fill-opacity="0.14133333333333" fill="#ddd" transform="translate(254.8, 339.4819582835)" /></svg>